<?xml version="1.0" encoding="UTF-8" standalone="no"?>
<!DOCTYPE svg PUBLIC "-//W3C//DTD SVG 1.1//EN" "http://www.w3.org/Graphics/SVG/1.1/DTD/svg11.dtd">
<svg xmlns="http://www.w3.org/2000/svg" version="1.1" viewBox="0.00 0.00 1383.00 1516.00">
<path fill="#000000" d="
  M 871.47 1308.54
  Q 871.47 1308.60 871.53 1308.61
  L 871.78 1308.63
  Q 871.93 1308.64 871.95 1308.49
  Q 873.69 1297.75 875.12 1287.53
  Q 875.35 1285.84 875.86 1284.24
  Q 876.02 1283.73 876.55 1283.74
  Q 878.50 1283.78 879.57 1285.64
  Q 881.79 1289.49 883.86 1293.33
  C 884.60 1294.70 886.32 1295.04 887.31 1293.65
  Q 888.31 1292.23 888.88 1290.48
  C 891.15 1283.59 893.86 1277.68 902.31 1278.65
  C 908.15 1279.32 913.60 1280.60 919.38 1278.47
  A 0.28 0.28 0.0 0 1 919.73 1278.84
  Q 917.51 1283.75 918.51 1289.67
  C 919.84 1297.53 927.36 1295.99 931.78 1292.32
  Q 938.18 1286.99 947.41 1278.72
  A 0.79 0.79 0.0 0 1 948.67 1279.02
  C 951.74 1286.92 957.95 1294.28 967.08 1293.63
  C 974.26 1293.13 981.43 1288.87 987.58 1284.90
  C 1076.01 1227.84 1159.33 1165.76 1243.44 1099.34
  A 0.33 0.33 0.0 0 1 1243.97 1099.62
  Q 1243.34 1111.01 1242.15 1123.19
  Q 1242.15 1123.25 1242.21 1123.26
  L 1242.49 1123.32
  Q 1242.68 1123.35 1242.74 1123.17
  L 1251.87 1093.56
  Q 1252.07 1092.88 1252.61 1093.35
  C 1254.34 1094.85 1256.33 1096.44 1258.52 1097.09
  C 1266.27 1099.39 1271.87 1092.94 1275.40 1087.08
  Q 1295.60 1053.51 1327.71 1031.15
  Q 1328.59 1030.54 1328.21 1031.55
  C 1302.26 1101.54 1268.29 1169.38 1221.54 1227.72
  Q 1213.94 1237.20 1189.99 1265.75
  Q 1189.71 1266.08 1189.72 1266.51
  C 1189.83 1279.68 1185.90 1296.61 1171.58 1299.93
  C 1165.65 1301.31 1159.30 1300.46 1153.25 1300.53
  Q 1143.70 1300.64 1136.09 1305.92
  Q 1131.29 1309.24 1132.39 1313.75
  Q 1133.56 1318.55 1137.25 1323.52
  Q 1137.58 1323.97 1137.07 1324.21
  Q 1136.70 1324.39 1136.39 1324.14
  Q 1132.98 1321.43 1129.61 1319.34
  C 1121.90 1314.56 1112.95 1315.81 1104.72 1318.69
  Q 1094.99 1322.10 1086.42 1324.73
  C 1080.64 1326.51 1084.28 1332.07 1087.00 1334.86
  Q 1092.34 1340.34 1096.59 1345.04
  C 1099.72 1348.51 1102.06 1354.34 1103.80 1359.04
  Q 1106.44 1366.17 1105.41 1373.90
  A 0.47 0.47 0.0 0 1 1104.60 1374.15
  L 1083.45 1351.04
  A 0.92 0.91 53.1 0 0 1082.30 1350.87
  Q 1065.26 1361.22 1051.67 1376.04
  C 1041.03 1387.65 1030.74 1399.75 1019.19 1410.39
  C 1013.79 1415.37 1011.86 1420.07 1011.91 1427.28
  Q 1011.98 1435.68 1012.62 1444.29
  A 0.91 0.90 -1.1 0 1 1011.68 1445.26
  Q 1003.75 1444.99 995.88 1444.38
  C 989.16 1443.86 979.82 1444.11 974.90 1448.85
  C 970.76 1452.83 969.93 1461.11 970.04 1466.66
  Q 970.17 1473.71 970.29 1480.87
  Q 970.30 1481.59 969.59 1481.46
  C 962.81 1480.24 957.87 1476.33 953.76 1470.99
  Q 949.80 1465.84 946.08 1461.18
  C 942.71 1456.95 938.19 1453.74 932.67 1454.80
  Q 912.91 1458.58 898.49 1462.07
  Q 886.90 1464.88 876.24 1471.04
  A 0.76 0.75 60.5 0 0 875.96 1472.07
  C 878.01 1475.69 880.56 1483.26 875.11 1485.30
  Q 871.75 1486.56 868.09 1485.91
  Q 863.06 1485.03 858.93 1484.88
  Q 858.44 1484.87 858.03 1484.61
  C 843.35 1475.68 827.25 1466.67 810.91 1462.81
  Q 790.92 1458.10 771.59 1465.17
  A 1.94 1.89 -45.7 0 1 770.37 1465.20
  Q 758.23 1461.30 745.36 1458.70
  C 700.52 1449.62 653.61 1450.75 606.71 1455.42
  Q 582.28 1457.86 556.37 1461.31
  A 0.69 0.69 0.0 0 1 555.59 1460.59
  Q 556.08 1452.12 556.00 1444.51
  Q 555.97 1441.86 554.39 1439.76
  A 0.68 0.67 39.4 0 0 553.24 1439.87
  Q 550.27 1446.15 542.73 1446.07
  Q 540.60 1446.04 537.99 1444.28
  Q 512.02 1426.72 478.22 1409.63
  Q 449.96 1395.33 423.52 1381.28
  Q 422.96 1380.98 422.32 1381.02
  Q 382.17 1383.78 348.48 1361.74
  Q 345.57 1359.83 342.80 1357.19
  C 331.65 1346.54 317.75 1341.02 301.64 1340.27
  Q 290.17 1339.74 275.67 1340.21
  C 265.98 1340.53 256.62 1339.41 247.24 1336.04
  C 201.03 1319.38 180.50 1272.13 173.25 1226.73
  Q 171.96 1218.70 167.32 1211.65
  C 163.23 1205.44 155.25 1198.54 147.45 1199.43
  Q 146.86 1199.50 146.69 1198.94
  C 134.84 1160.73 119.99 1123.06 103.89 1086.77
  Q 79.95 1032.81 59.59 986.74
  Q 54.07 974.23 48.19 959.59
  C 40.51 940.43 41.84 918.46 42.32 898.08
  A 0.38 0.38 0.0 0 1 42.85 897.74
  C 52.73 901.95 62.29 898.52 60.40 885.98
  Q 54.84 849.02 42.91 814.43
  C 31.90 782.52 16.70 751.28 0.26 720.96
  A 1.42 1.40 36.1 0 1 0.11 720.03
  Q 4.57 696.21 5.72 688.51
  Q 10.91 653.47 15.82 621.75
  Q 20.18 593.59 27.36 566.02
  C 35.85 533.45 49.52 502.76 71.14 477.09
  C 95.59 448.05 126.12 425.25 152.14 397.27
  C 161.01 387.74 169.18 378.31 172.93 367.47
  Q 176.36 357.57 179.90 347.00
  Q 181.91 340.97 185.22 335.48
  Q 187.92 330.99 192.97 325.94
  C 232.11 286.80 270.57 246.85 313.27 211.62
  C 322.00 204.41 331.98 202.83 343.05 203.88
  C 358.43 205.34 372.70 207.77 387.92 205.07
  Q 388.42 204.98 388.58 204.49
  Q 397.87 175.08 423.83 157.35
  C 439.54 146.62 458.59 141.89 477.22 146.59
  C 482.49 147.92 489.73 143.69 493.91 140.64
  C 507.36 130.84 519.28 117.16 531.76 106.58
  C 534.92 103.91 542.83 100.72 544.76 106.55
  Q 545.92 110.05 545.43 114.79
  Q 544.47 123.95 543.46 133.34
  Q 543.32 134.67 544.38 133.86
  Q 561.33 120.81 581.26 110.71
  Q 603.53 99.42 629.26 89.74
  Q 654.47 80.26 681.77 70.34
  Q 682.24 70.17 682.71 70.37
  Q 687.21 72.25 692.00 73.88
  C 696.27 75.32 702.16 80.16 705.93 83.46
  C 714.00 90.51 724.06 99.34 735.33 95.46
  Q 736.77 94.97 738.26 94.57
  Q 738.90 94.40 738.92 95.06
  Q 739.12 105.74 739.29 115.33
  C 739.48 125.62 737.58 136.82 728.82 142.83
  C 720.74 148.38 708.25 148.99 698.74 148.55
  Q 684.59 147.89 671.79 147.90
  Q 613.64 147.95 559.66 165.34
  C 527.14 175.81 494.39 191.46 463.75 209.23
  Q 430.68 228.41 392.90 251.08
  C 376.01 261.22 357.36 269.93 342.64 283.47
  Q 315.65 308.28 290.13 331.91
  C 251.25 367.90 214.53 405.88 186.51 450.54
  Q 147.99 511.93 136.18 583.60
  Q 134.95 591.04 133.59 603.44
  Q 125.86 673.89 118.13 744.34
  Q 116.73 757.10 116.42 758.63
  C 114.61 767.77 109.52 776.41 105.21 784.81
  C 100.73 793.53 97.04 803.66 98.38 813.06
  Q 105.35 861.86 112.60 912.69
  Q 112.74 913.73 111.99 913.00
  C 100.08 901.33 90.34 915.02 94.85 926.61
  C 96.69 931.33 100.06 939.39 105.33 940.88
  C 109.87 942.16 113.96 938.02 116.27 934.55
  Q 116.76 933.81 117.17 934.60
  Q 122.07 944.22 125.60 952.83
  Q 134.47 974.48 142.66 995.12
  Q 150.76 1015.53 160.56 1033.07
  C 163.65 1038.60 167.43 1044.23 171.67 1049.20
  C 240.71 1130.07 323.79 1197.78 399.99 1273.48
  Q 400.75 1274.24 401.79 1273.89
  Q 402.24 1273.74 402.69 1273.65
  Q 413.43 1271.62 422.71 1269.47
  C 428.68 1268.09 433.93 1264.71 436.39 1259.04
  Q 436.88 1257.90 437.32 1259.06
  C 441.73 1270.63 431.79 1281.06 421.36 1283.98
  Q 420.95 1284.10 421.30 1284.33
  C 457.41 1307.88 497.04 1323.60 540.20 1326.62
  Q 554.24 1327.60 567.09 1328.84
  Q 640.16 1335.90 710.77 1354.15
  Q 712.48 1354.60 714.23 1354.12
  Q 755.37 1343.05 798.62 1340.66
  Q 803.97 1340.36 808.41 1336.05
  C 814.22 1330.40 819.15 1323.84 826.82 1320.61
  A 1.01 0.99 81.5 0 0 827.42 1319.79
  L 829.25 1301.47
  Q 829.40 1300.00 830.18 1301.26
  C 831.31 1303.08 833.42 1305.95 835.59 1306.65
  A 1.51 1.51 0.0 0 0 837.54 1305.52
  C 838.95 1298.60 835.48 1289.26 832.15 1283.32
  Q 831.57 1282.30 832.46 1283.07
  C 841.72 1291.14 848.33 1300.95 854.81 1311.50
  Q 855.31 1312.32 855.60 1311.40
  Q 856.49 1308.57 857.95 1306.03
  C 859.54 1303.23 863.83 1297.34 867.50 1297.98
  C 871.21 1298.62 871.63 1305.82 871.47 1308.54
  Z
  M 142.24 1023.78
  Q 135.04 1013.29 130.75 1002.62
  Q 125.74 990.15 121.08 980.33
  Q 119.26 976.48 115.76 972.10
  Q 114.24 970.20 111.83 969.80
  Q 110.66 969.61 110.55 969.59
  Q 108.15 969.19 109.43 971.26
  Q 112.91 976.90 116.38 983.84
  C 119.28 989.62 120.65 995.19 120.90 1001.52
  C 121.36 1013.43 131.66 1020.02 142.02 1024.06
  Q 142.59 1024.28 142.24 1023.78
  Z
  M 105.72 1000.99
  Q 106.72 1002.23 106.24 1000.71
  Q 102.06 987.54 98.16 974.49
  C 96.35 968.45 90.56 972.40 88.85 975.74
  C 86.72 979.91 89.82 981.18 91.88 983.76
  Q 98.62 992.21 105.72 1000.99
  Z"
/>
<path fill="#000000" d="
  M 1356.77 681.42
  Q 1356.94 679.96 1356.12 681.18
  C 1353.76 684.69 1350.58 688.98 1346.63 690.60
  C 1338.05 694.14 1334.28 681.44 1334.74 675.10
  C 1335.19 668.84 1335.12 663.85 1329.02 660.42
  C 1326.53 659.02 1324.09 657.41 1321.93 655.43
  Q 1299.06 634.33 1282.75 604.20
  Q 1276.26 592.23 1270.55 580.01
  A 1.49 1.49 0.0 0 1 1270.50 578.85
  C 1279.88 553.27 1280.75 520.52 1258.21 501.03
  Q 1253.77 497.19 1246.42 492.44
  Q 1228.54 480.89 1221.03 460.51
  Q 1217.69 451.46 1214.33 443.10
  C 1205.92 422.15 1201.20 401.33 1203.95 379.44
  A 1.14 1.13 -2.4 0 0 1202.58 378.19
  Q 1200.48 378.64 1198.71 379.61
  C 1188.89 384.98 1172.86 394.76 1161.15 391.08
  Q 1158.22 390.17 1152.67 386.21
  Q 1147.02 382.18 1141.17 378.02
  Q 1094.29 344.66 1042.39 307.52
  Q 1020.45 291.83 986.73 269.52
  Q 946.40 242.84 904.74 219.55
  Q 903.88 219.07 902.83 219.07
  C 866.29 219.19 823.43 208.06 799.17 178.72
  C 791.29 169.20 789.43 156.53 795.32 145.49
  C 799.85 137.01 809.24 131.15 818.83 130.62
  Q 827.85 130.12 837.27 129.57
  C 845.52 129.09 854.42 129.80 861.14 134.28
  A 0.40 0.39 -64.2 0 0 861.74 134.07
  C 864.02 126.64 869.79 119.13 877.54 117.01
  Q 879.43 116.49 883.50 116.41
  Q 902.25 116.02 921.00 115.50
  C 942.25 114.92 963.90 115.70 984.20 120.43
  Q 993.40 122.57 1003.23 125.47
  C 1074.26 146.46 1138.54 182.63 1187.39 236.95
  C 1192.60 242.75 1197.29 248.38 1201.42 254.99
  Q 1269.02 363.28 1337.82 473.31
  Q 1338.66 474.65 1338.85 476.21
  C 1342.63 508.05 1347.05 538.99 1350.56 570.74
  Q 1355.79 618.07 1354.91 661.64
  A 0.41 0.40 88.7 0 0 1355.33 662.05
  Q 1360.83 661.72 1364.23 657.28
  C 1370.04 649.72 1372.38 641.40 1382.12 638.00
  A 0.46 0.46 0.0 0 1 1382.70 638.60
  Q 1373.24 662.68 1367.51 689.92
  Q 1358.09 734.75 1355.15 784.17
  Q 1354.99 786.81 1354.14 784.31
  Q 1353.38 782.10 1352.94 779.86
  Q 1349.82 763.87 1350.51 744.92
  C 1351.30 723.57 1354.42 702.60 1356.77 681.42
  Z"
/>
<path fill="#000000" d="
  M 543.66 804.56
  Q 543.61 802.45 543.44 800.43
  C 540.29 763.35 531.57 727.54 519.00 691.55
  Q 503.19 646.28 480.91 604.28
  Q 480.60 603.69 481.24 603.49
  L 533.26 587.32
  A 0.82 0.82 0.0 0 0 533.83 586.54
  L 533.83 452.21
  A 0.46 0.45 -0.0 0 1 534.29 451.76
  L 627.69 451.78
  A 0.73 0.72 90.0 0 0 628.41 451.05
  L 628.35 408.90
  Q 628.35 408.15 629.10 408.15
  L 755.70 408.16
  Q 756.25 408.16 756.24 408.70
  L 756.13 450.69
  Q 756.12 451.77 757.20 451.77
  L 849.70 451.76
  A 0.94 0.94 0.0 0 1 850.64 452.70
  L 850.65 586.49
  Q 850.65 587.12 851.25 587.30
  L 903.40 603.52
  A 0.45 0.45 0.0 0 1 903.67 604.16
  Q 879.13 650.88 862.76 700.17
  C 851.05 735.46 843.23 770.12 840.70 806.42
  A 0.60 0.60 0.0 0 0 841.59 806.99
  Q 851.46 801.47 860.14 797.34
  Q 876.63 789.49 895.24 791.11
  Q 906.22 792.06 917.48 795.16
  Q 941.46 801.75 964.27 812.93
  Q 964.79 813.19 964.53 813.71
  L 945.71 851.70
  A 0.89 0.89 0.0 0 1 944.54 852.10
  Q 922.57 841.56 902.44 836.55
  C 893.88 834.42 885.37 833.38 877.16 837.75
  C 865.28 844.06 853.74 850.54 840.41 853.08
  Q 808.96 859.06 780.43 843.57
  Q 775.81 841.06 771.41 838.72
  C 762.02 833.72 753.38 833.19 743.55 838.42
  C 734.75 843.11 725.65 848.13 716.22 851.12
  Q 699.24 856.50 681.11 853.83
  C 669.53 852.12 659.51 847.08 649.36 841.17
  Q 644.21 838.17 639.70 836.69
  C 630.47 833.65 617.51 833.56 608.42 838.68
  Q 603.03 841.72 597.92 844.71
  Q 573.96 858.69 546.38 853.24
  C 534.00 850.79 523.89 844.48 512.92 838.79
  C 500.25 832.22 484.57 834.49 471.32 838.54
  Q 455.68 843.32 441.55 851.12
  A 1.03 1.03 0.0 0 1 440.17 850.74
  L 418.57 814.62
  A 0.74 0.73 59.9 0 1 418.84 813.60
  Q 445.06 798.65 472.98 793.05
  C 491.22 789.38 510.14 789.90 527.12 797.12
  Q 535.24 800.57 542.76 805.08
  Q 543.69 805.64 543.66 804.56
  Z
  M 696.12 539.09
  Q 748.75 555.57 800.40 571.53
  A 0.76 0.76 0.0 0 0 801.39 570.81
  L 801.38 496.61
  Q 801.38 495.59 800.36 495.59
  L 583.59 495.59
  A 0.39 0.38 -0.0 0 0 583.20 495.97
  L 583.19 571.26
  A 0.43 0.43 0.0 0 0 583.74 571.67
  Q 635.53 555.69 686.99 539.55
  Q 688.97 538.93 690.95 538.40
  C 692.71 537.92 694.44 538.57 696.12 539.09
  Z"
/>
<path fill="#000000" d="
  M 713.62 924.84
  Q 689.84 931.30 667.90 923.42
  C 660.40 920.73 652.05 915.76 644.41 911.58
  C 634.40 906.11 617.79 906.21 607.93 911.93
  Q 602.41 915.14 596.23 918.65
  C 576.49 929.86 551.40 930.73 530.99 921.16
  Q 523.41 917.61 514.75 912.73
  C 503.65 906.48 491.46 906.78 479.45 909.46
  Q 460.58 913.68 441.57 924.11
  Q 440.68 924.61 440.15 923.73
  L 418.52 887.53
  Q 418.27 887.11 418.67 886.81
  Q 419.89 885.92 421.22 885.20
  C 441.89 873.98 465.10 865.76 488.13 864.04
  Q 512.92 862.19 534.13 873.38
  C 545.04 879.13 555.16 886.56 568.33 883.06
  Q 572.85 881.86 578.06 878.59
  C 582.36 875.89 586.69 873.45 591.21 871.29
  C 613.46 860.64 643.19 861.24 665.47 873.14
  Q 672.00 876.63 678.90 880.46
  C 688.84 885.98 701.00 884.35 710.89 879.01
  Q 720.00 874.08 726.71 870.95
  Q 758.00 856.37 788.59 871.38
  Q 794.78 874.41 801.82 878.23
  Q 817.71 886.86 834.66 882.40
  C 842.91 880.23 850.93 874.71 858.84 870.90
  Q 876.76 862.25 895.65 864.12
  Q 910.03 865.55 925.83 870.57
  Q 945.93 876.97 964.08 885.86
  Q 964.80 886.21 964.44 886.92
  L 945.63 924.82
  A 0.75 0.74 -63.8 0 1 944.64 925.16
  Q 924.47 915.27 903.04 909.68
  C 895.43 907.69 885.98 906.27 878.67 910.01
  Q 871.58 913.64 864.38 917.47
  C 839.54 930.67 809.91 931.20 784.75 918.70
  Q 779.21 915.94 773.17 912.68
  Q 765.74 908.66 761.29 908.01
  Q 752.71 906.76 745.30 910.59
  C 735.17 915.84 725.07 921.73 713.62 924.84
  Z"
/>
<path fill="#000000" d="
  M 798.56 1044.21
  C 794.81 1041.81 788.82 1041.47 784.27 1041.53
  C 766.03 1041.78 752.75 1029.80 751.04 1011.90
  C 748.54 985.65 769.41 967.35 794.13 965.49
  C 806.26 964.58 820.33 966.14 831.74 971.28
  Q 832.23 971.51 832.18 972.04
  L 829.06 1005.22
  A 0.43 0.42 12.7 0 1 828.49 1005.58
  C 817.37 1001.67 803.28 999.25 792.14 1002.81
  Q 790.66 1003.28 789.42 1004.30
  C 786.83 1006.42 787.66 1010.28 790.55 1011.69
  C 795.77 1014.23 802.79 1013.71 808.77 1013.83
  C 822.94 1014.10 834.34 1022.12 837.73 1035.62
  Q 840.22 1045.52 837.86 1056.36
  Q 833.38 1076.98 813.72 1086.00
  Q 804.92 1090.03 792.33 1091.02
  Q 784.35 1091.65 775.78 1089.32
  Q 762.48 1085.71 751.34 1080.38
  Q 750.81 1080.13 750.87 1079.55
  L 754.38 1046.31
  A 0.56 0.55 17.9 0 1 755.21 1045.89
  Q 767.89 1053.11 784.10 1054.17
  C 788.75 1054.47 794.34 1054.53 798.27 1052.16
  C 801.14 1050.44 801.46 1046.08 798.56 1044.21
  Z"
/>
<path fill="#000000" d="
  M 581.21 979.76
  Q 581.18 980.85 581.87 980.01
  C 587.51 973.21 595.26 967.80 603.98 967.27
  C 626.76 965.91 636.49 983.68 639.95 1003.53
  Q 642.44 1017.86 642.48 1034.26
  Q 642.55 1062.53 641.60 1084.35
  A 0.60 0.60 0.0 0 1 640.99 1084.93
  L 593.74 1084.06
  Q 593.12 1084.05 593.22 1083.44
  C 596.84 1060.86 599.92 1040.57 599.15 1018.98
  Q 598.84 1010.51 596.97 1003.10
  Q 596.24 1000.19 594.36 997.80
  Q 594.05 997.40 593.57 997.26
  C 588.21 995.62 584.41 1001.24 582.96 1006.10
  Q 580.73 1013.59 580.53 1021.48
  Q 579.68 1055.29 579.09 1084.93
  Q 579.07 1085.58 578.43 1085.61
  L 536.80 1087.41
  Q 536.03 1087.44 536.07 1086.67
  Q 539.72 1026.61 541.87 969.70
  A 0.41 0.41 0.0 0 1 542.26 969.30
  L 580.67 967.28
  Q 581.59 967.23 581.57 968.16
  L 581.21 979.76
  Z"
/>
<path fill="#000000" d="
  M 417.63 1053.69
  L 416.50 1089.45
  A 0.52 0.52 0.0 0 1 415.98 1089.95
  L 379.30 1089.95
  A 0.52 0.52 0.0 0 1 378.78 1089.42
  L 381.98 972.18
  A 0.52 0.52 0.0 0 1 382.52 971.67
  L 421.51 973.49
  A 0.52 0.52 0.0 0 1 422.01 974.03
  L 419.55 1033.39
  A 0.52 0.52 0.0 0 0 420.07 1033.93
  L 437.65 1033.92
  A 0.52 0.52 0.0 0 0 438.17 1033.40
  L 438.31 969.46
  A 0.52 0.52 0.0 0 1 438.84 968.94
  L 476.21 969.99
  A 0.52 0.52 0.0 0 1 476.71 970.49
  L 479.40 1089.44
  A 0.52 0.52 0.0 0 1 478.90 1089.97
  L 437.86 1091.96
  A 0.52 0.52 0.0 0 1 437.32 1091.45
  L 437.00 1053.67
  A 0.52 0.52 0.0 0 0 436.48 1053.15
  L 418.15 1053.19
  A 0.52 0.52 0.0 0 0 417.63 1053.69
  Z"
/>
<path fill="#000000" d="
  M 689.22 1005.45
  L 712.58 971.71
  A 0.98 0.98 0.0 0 1 713.63 971.32
  L 752.71 981.00
  Q 753.71 981.25 753.05 982.03
  L 716.72 1025.25
  A 0.46 0.45 -41.2 0 0 716.68 1025.77
  L 750.19 1082.58
  A 0.68 0.67 -20.3 0 1 749.72 1083.59
  L 712.13 1090.19
  A 0.87 0.86 66.5 0 1 711.29 1089.85
  L 686.91 1056.76
  Q 686.04 1055.58 685.98 1057.05
  L 684.82 1087.57
  A 1.21 1.21 0.0 0 1 683.65 1088.74
  L 650.45 1089.88
  Q 649.76 1089.90 649.77 1089.21
  L 652.40 970.26
  A 0.80 0.80 0.0 0 1 653.24 969.48
  L 691.01 971.63
  A 0.59 0.59 0.0 0 1 691.56 972.27
  L 688.72 1005.27
  Q 688.63 1006.30 689.22 1005.45
  Z"
/>
<path fill="#000000" d="
  M 306.78 1008.22
  L 282.82 1009.50
  A 0.49 0.49 0.0 0 1 282.30 1009.00
  L 283.19 970.27
  A 0.49 0.49 0.0 0 1 283.68 969.79
  L 374.43 969.67
  A 0.49 0.49 0.0 0 1 374.92 970.17
  L 374.13 1004.88
  A 0.49 0.49 0.0 0 1 373.66 1005.36
  L 349.47 1006.33
  A 0.49 0.49 0.0 0 0 349.01 1006.78
  L 342.70 1085.68
  A 0.49 0.49 0.0 0 1 342.24 1086.13
  L 307.69 1087.87
  A 0.49 0.49 0.0 0 1 307.17 1087.38
  L 307.30 1008.71
  A 0.49 0.49 0.0 0 0 306.78 1008.22
  Z"
/>
<path fill="#000000" d="
  M 1042.22 1056.01
  L 1042.22 1090.49
  Q 1042.22 1091.21 1041.51 1091.21
  L 1003.55 1091.10
  Q 1002.94 1091.10 1002.94 1090.48
  Q 1003.12 1040.12 1003.47 988.24
  Q 1003.51 982.10 1003.88 976.79
  A 0.65 0.64 -6.7 0 1 1004.34 976.22
  Q 1022.43 970.78 1042.53 970.04
  Q 1050.75 969.74 1058.55 970.75
  C 1084.04 974.04 1104.60 991.40 1100.16 1019.39
  C 1095.89 1046.34 1067.43 1054.82 1042.97 1055.26
  Q 1042.22 1055.27 1042.22 1056.01
  Z
  M 1044.20 1005.27
  L 1043.23 1028.71
  A 0.39 0.38 -83.9 0 0 1043.54 1029.10
  C 1052.30 1030.67 1061.60 1026.40 1063.14 1017.20
  Q 1063.78 1013.42 1062.27 1009.89
  C 1059.38 1003.13 1051.37 1002.91 1044.80 1004.52
  Q 1044.22 1004.67 1044.20 1005.27
  Z"
/>
<path fill="#000000" d="
  M 882.36 1053.68
  L 881.19 1089.41
  A 0.55 0.55 0.0 0 1 880.64 1089.94
  L 844.03 1089.94
  A 0.55 0.55 0.0 0 1 843.49 1089.38
  L 846.63 972.21
  A 0.55 0.55 0.0 0 1 847.21 971.68
  L 886.19 973.49
  A 0.55 0.55 0.0 0 1 886.72 974.07
  L 884.22 1033.35
  A 0.55 0.55 0.0 0 0 884.77 1033.92
  L 902.27 1033.92
  A 0.55 0.55 0.0 0 0 902.82 1033.37
  L 903.02 971.22
  A 0.55 0.55 0.0 0 1 903.58 970.67
  L 940.89 971.65
  A 0.55 0.55 0.0 0 1 941.42 972.18
  L 944.06 1086.04
  A 0.55 0.55 0.0 0 1 943.53 1086.61
  L 902.45 1088.58
  A 0.55 0.55 0.0 0 1 901.88 1088.04
  L 901.72 1053.70
  A 0.55 0.55 0.0 0 0 901.17 1053.15
  L 882.91 1053.15
  A 0.55 0.55 0.0 0 0 882.36 1053.68
  Z"
/>
<path fill="#000000" d="
  M 531.25 971.96
  L 525.39 1085.71
  A 0.50 0.50 0.0 0 1 524.92 1086.18
  L 490.40 1087.87
  A 0.50 0.50 0.0 0 1 489.87 1087.38
  L 486.46 974.38
  A 0.50 0.50 0.0 0 1 486.94 973.86
  L 530.72 971.43
  A 0.50 0.50 0.0 0 1 531.25 971.96
  Z"
/>
<path fill="#000000" d="
  M 995.92 971.97
  L 990.10 1085.71
  A 0.47 0.47 0.0 0 1 989.66 1086.15
  L 955.01 1087.88
  A 0.47 0.47 0.0 0 1 954.52 1087.42
  L 951.19 974.31
  A 0.47 0.47 0.0 0 1 951.64 973.83
  L 995.43 971.48
  A 0.47 0.47 0.0 0 1 995.92 971.97
  Z"
/>
<ellipse fill="#000000" cx="0.00" cy="0.00" transform="translate(423.86,1116.46) rotate(24.4)" rx="6.16" ry="5.95"/>
<circle fill="#000000" cx="559.12" cy="1116.47" r="6.04"/>
<circle fill="#000000" cx="949.24" cy="1116.46" r="6.05"/>
<ellipse fill="#000000" cx="0.00" cy="0.00" transform="translate(1010.65,1116.47) rotate(23.4)" rx="6.16" ry="5.96"/>
<path fill="#000000" d="
  M 296.18 1147.17
  C 305.76 1147.16 315.04 1145.47 324.51 1143.81
  Q 324.81 1143.75 324.81 1144.06
  L 324.76 1153.22
  A 0.48 0.48 0.0 0 1 324.38 1153.69
  C 312.90 1155.91 302.38 1157.62 291.65 1155.79
  Q 288.01 1155.17 285.59 1151.12
  C 281.10 1143.64 281.58 1132.84 283.84 1124.54
  C 285.26 1119.29 288.14 1113.70 293.83 1112.28
  Q 307.38 1108.89 320.71 1112.34
  Q 321.23 1112.48 321.20 1113.02
  Q 320.74 1119.65 321.20 1126.78
  A 0.59 0.59 0.0 0 1 320.44 1127.39
  C 312.60 1125.03 304.76 1125.14 296.97 1127.43
  Q 295.98 1127.72 295.16 1128.39
  Q 294.71 1128.75 294.56 1129.30
  C 293.13 1134.38 293.99 1140.78 294.94 1146.12
  A 1.26 1.26 0.0 0 0 296.18 1147.17
  Z"
/>
<path fill="#000000" d="
  M 740.89 1147.12
  Q 744.32 1147.30 748.00 1146.94
  Q 759.03 1145.85 768.92 1143.85
  A 0.66 0.66 0.0 0 1 769.71 1144.50
  L 769.65 1152.70
  Q 769.64 1153.59 768.78 1153.76
  C 758.57 1155.81 748.47 1157.18 737.96 1156.09
  C 726.06 1154.85 726.22 1135.99 727.97 1127.41
  C 729.28 1121.02 732.20 1113.90 738.57 1112.30
  Q 752.03 1108.93 765.61 1112.29
  A 0.64 0.63 9.5 0 1 766.10 1112.96
  Q 765.56 1119.66 766.05 1126.80
  Q 766.11 1127.61 765.34 1127.37
  Q 755.18 1124.15 743.49 1126.95
  Q 741.66 1127.39 740.02 1128.33
  Q 739.55 1128.60 739.42 1129.12
  C 738.04 1134.36 738.82 1140.85 739.79 1146.16
  A 1.18 1.18 0.0 0 0 740.89 1147.12
  Z"
/>
<path fill="#000000" d="
  M 636.81 1122.49
  L 640.48 1122.64
  Q 641.19 1122.67 641.21 1123.38
  Q 641.33 1127.05 640.41 1130.44
  Q 640.25 1131.02 639.67 1131.13
  Q 638.47 1131.36 637.20 1131.08
  Q 635.59 1130.72 635.56 1132.37
  Q 635.46 1138.17 635.42 1144.53
  Q 635.39 1148.68 639.53 1148.65
  Q 644.20 1148.62 648.54 1147.63
  A 0.62 0.61 -3.4 0 1 649.29 1148.29
  L 648.30 1158.06
  A 0.65 0.64 -0.1 0 1 647.71 1158.64
  Q 638.27 1159.49 629.68 1158.15
  C 624.72 1157.38 622.46 1152.85 621.87 1148.32
  Q 620.89 1140.81 621.28 1133.24
  A 0.97 0.96 -88.0 0 0 620.34 1132.22
  L 618.10 1132.17
  Q 617.40 1132.16 617.44 1131.46
  L 617.97 1121.64
  Q 618.00 1121.04 618.61 1121.04
  L 620.57 1121.03
  Q 621.66 1121.03 621.67 1119.93
  L 621.73 1112.53
  Q 621.73 1112.00 622.27 1112.03
  L 635.56 1112.78
  Q 636.06 1112.81 636.05 1113.31
  L 635.94 1121.56
  Q 635.93 1122.45 636.81 1122.49
  Z"
/>
<path fill="#000000" d="
  M 916.78 1120.53
  L 916.78 1112.25
  A 0.49 0.49 0.0 0 1 917.39 1111.78
  C 921.43 1112.83 926.51 1112.55 930.51 1112.75
  A 0.67 0.66 2.2 0 1 931.15 1113.43
  L 930.96 1121.47
  A 1.03 1.03 0.0 0 0 931.97 1122.53
  L 935.69 1122.60
  A 0.63 0.63 0.0 0 1 936.31 1123.21
  Q 936.47 1127.10 935.47 1130.62
  Q 935.29 1131.27 934.62 1131.23
  L 931.69 1131.09
  A 0.94 0.94 0.0 0 0 930.71 1131.99
  Q 930.41 1138.59 930.56 1144.93
  Q 930.65 1148.58 934.27 1148.64
  Q 939.00 1148.72 943.60 1147.64
  A 0.58 0.58 0.0 0 1 944.31 1148.25
  L 943.42 1158.02
  A 0.70 0.69 -0.0 0 1 942.78 1158.65
  Q 933.29 1159.47 924.78 1158.17
  C 920.08 1157.45 917.75 1153.29 917.10 1148.94
  Q 915.94 1141.23 916.45 1133.38
  A 1.12 1.12 0.0 0 0 915.32 1132.19
  L 913.01 1132.22
  A 0.44 0.44 0.0 0 1 912.57 1131.76
  L 912.88 1121.79
  A 0.81 0.80 1.4 0 1 913.71 1121.01
  L 916.22 1121.08
  Q 916.78 1121.09 916.78 1120.53
  Z"
/>
<path fill="#000000" d="
  M 1028.70 1121.05
  Q 1029.73 1121.07 1029.72 1120.05
  L 1029.66 1112.58
  Q 1029.65 1111.99 1030.24 1112.02
  L 1043.43 1112.78
  Q 1044.06 1112.81 1044.05 1113.44
  L 1043.90 1121.73
  A 0.75 0.74 2.0 0 0 1044.62 1122.49
  L 1047.84 1122.59
  Q 1049.19 1122.64 1049.20 1123.99
  Q 1049.23 1127.09 1048.38 1130.39
  Q 1048.22 1131.00 1047.61 1131.13
  Q 1046.48 1131.37 1045.34 1131.09
  Q 1043.53 1130.66 1043.52 1132.52
  Q 1043.47 1137.38 1043.33 1142.91
  Q 1043.27 1145.36 1044.10 1147.38
  A 1.25 1.20 -0.1 0 0 1044.81 1148.06
  C 1048.19 1149.31 1053.16 1148.32 1056.60 1147.67
  Q 1057.33 1147.53 1057.26 1148.27
  L 1056.34 1157.57
  Q 1056.23 1158.66 1055.14 1158.76
  Q 1048.19 1159.40 1039.70 1158.50
  C 1034.07 1157.91 1031.09 1155.15 1030.08 1149.64
  Q 1028.76 1142.48 1029.30 1133.24
  A 1.00 1.00 0.0 0 0 1028.30 1132.18
  L 1025.86 1132.19
  Q 1025.28 1132.19 1025.31 1131.61
  L 1025.86 1121.68
  Q 1025.89 1121.00 1026.57 1121.01
  L 1028.70 1121.05
  Z"
/>
<path fill="#000000" d="
  M 449.73 1127.45
  Q 457.62 1127.91 466.14 1128.02
  C 470.24 1128.07 473.23 1130.43 473.94 1134.46
  C 474.77 1139.17 475.07 1149.16 469.21 1150.59
  C 459.55 1152.97 449.53 1152.42 439.65 1150.72
  Q 439.06 1150.62 439.06 1150.02
  L 439.07 1139.30
  Q 439.07 1138.63 439.73 1138.75
  Q 448.40 1140.24 463.37 1139.89
  Q 465.71 1139.83 465.85 1137.50
  Q 465.86 1137.30 465.87 1137.10
  Q 466.00 1135.25 464.15 1135.23
  Q 457.36 1135.13 449.88 1134.65
  C 445.95 1134.40 439.12 1134.10 438.63 1128.92
  C 438.30 1125.34 438.79 1118.05 442.54 1116.35
  Q 443.75 1115.80 445.00 1115.63
  Q 459.73 1113.61 474.57 1115.04
  Q 474.79 1115.07 474.78 1115.29
  L 474.39 1122.79
  A 0.35 0.34 2.6 0 1 474.03 1123.11
  Q 461.59 1122.56 450.43 1123.76
  A 2.11 2.11 0.0 0 0 448.56 1125.69
  Q 448.55 1125.86 448.53 1126.03
  Q 448.38 1127.37 449.73 1127.45
  Z"
/>
<path fill="#000000" d="
  M 1091.72 1146.66
  Q 1089.27 1150.24 1084.82 1150.69
  Q 1073.72 1151.79 1066.10 1149.88
  C 1057.11 1147.63 1056.11 1139.92 1056.78 1131.67
  Q 1057.39 1124.31 1058.98 1116.69
  Q 1059.11 1116.07 1059.74 1116.08
  L 1071.99 1116.27
  A 0.44 0.43 -81.1 0 1 1072.40 1116.84
  Q 1069.63 1125.33 1069.77 1134.20
  Q 1069.85 1139.40 1074.65 1139.76
  Q 1080.48 1140.20 1085.54 1138.44
  A 1.92 1.91 84.7 0 0 1086.80 1136.91
  C 1087.76 1130.10 1087.54 1122.82 1087.42 1115.83
  Q 1087.41 1115.15 1088.09 1115.19
  L 1098.86 1115.95
  A 0.83 0.82 -89.6 0 1 1099.62 1116.73
  Q 1100.23 1129.48 1100.70 1142.49
  Q 1100.98 1150.01 1100.37 1158.37
  C 1100.00 1163.45 1097.59 1167.26 1092.18 1167.18
  Q 1077.95 1166.96 1066.42 1165.51
  Q 1065.96 1165.45 1065.96 1164.99
  L 1065.88 1157.43
  Q 1065.88 1156.83 1066.47 1156.83
  Q 1078.38 1156.85 1088.87 1155.68
  C 1092.43 1155.28 1092.21 1149.50 1092.20 1146.81
  Q 1092.19 1145.97 1091.72 1146.66
  Z"
/>
<path fill="#000000" d="
  M 585.26 1121.43
  Q 585.46 1122.12 585.87 1121.53
  Q 590.38 1115.08 598.29 1115.54
  C 603.86 1115.87 609.87 1117.86 610.77 1124.10
  Q 612.32 1134.68 611.69 1146.50
  A 0.47 0.46 -0.0 0 1 611.24 1146.94
  L 598.26 1147.67
  A 0.54 0.54 0.0 0 1 597.69 1147.10
  C 598.03 1141.17 598.82 1134.54 597.74 1129.10
  Q 597.14 1126.07 593.83 1126.12
  Q 589.65 1126.20 586.10 1127.60
  A 0.93 0.93 0.0 0 0 585.51 1128.45
  L 585.41 1145.97
  Q 585.41 1146.35 585.03 1146.37
  L 576.32 1146.94
  Q 575.94 1146.97 575.91 1146.59
  L 573.14 1118.03
  A 0.63 0.63 0.0 0 1 573.73 1117.34
  Q 579.00 1117.05 584.12 1117.51
  A 0.84 0.84 0.0 0 1 584.88 1118.35
  Q 584.87 1120.02 585.26 1121.43
  Z"
/>
<path fill="#000000" d="
  M 492.52 1136.61
  Q 489.54 1136.73 491.03 1139.31
  Q 491.30 1139.78 491.49 1140.11
  Q 493.07 1142.84 496.22 1142.95
  Q 506.91 1143.34 516.87 1142.16
  Q 517.63 1142.07 517.67 1142.83
  L 518.17 1151.55
  Q 518.21 1152.22 517.54 1152.25
  Q 498.30 1153.29 487.30 1151.97
  C 479.06 1150.99 478.87 1136.73 479.62 1131.05
  C 480.68 1122.89 485.16 1119.44 492.86 1117.77
  Q 505.10 1115.11 515.83 1118.73
  C 519.65 1120.02 522.08 1121.84 522.69 1126.01
  Q 523.37 1130.68 523.65 1134.60
  Q 523.70 1135.36 522.94 1135.39
  L 492.52 1136.61
  Z
  M 515.10 1129.94
  Q 513.93 1124.29 509.42 1123.30
  Q 504.51 1122.22 497.89 1123.19
  Q 495.32 1123.57 494.65 1126.07
  Q 494.15 1127.91 493.90 1128.86
  Q 493.22 1131.35 495.80 1131.28
  L 514.47 1130.74
  Q 515.26 1130.71 515.10 1129.94
  Z"
/>
<path fill="#000000" d="
  M 826.51 1136.61
  Q 823.38 1136.73 825.03 1139.40
  Q 825.18 1139.65 825.51 1140.19
  Q 827.21 1142.95 830.46 1143.01
  Q 841.66 1143.23 851.02 1142.19
  A 0.59 0.58 85.4 0 1 851.67 1142.75
  L 852.07 1151.56
  Q 852.09 1152.17 851.49 1152.21
  Q 837.73 1153.24 822.76 1152.19
  Q 816.88 1151.78 814.99 1146.30
  Q 812.11 1137.93 813.98 1128.84
  C 815.07 1123.54 818.55 1120.11 823.81 1118.59
  Q 837.99 1114.49 850.63 1119.06
  C 853.18 1119.98 855.89 1121.79 856.38 1124.69
  Q 857.22 1129.61 857.59 1134.47
  A 0.85 0.85 0.0 0 1 856.78 1135.39
  L 826.51 1136.61
  Z
  M 847.77 1126.60
  Q 846.38 1123.95 843.47 1123.31
  Q 838.33 1122.19 831.91 1123.15
  Q 828.63 1123.64 828.21 1126.92
  L 827.93 1129.13
  Q 827.64 1131.36 829.89 1131.29
  L 847.08 1130.79
  Q 850.01 1130.70 848.60 1128.14
  Q 848.17 1127.37 847.77 1126.60
  Z"
/>
<path fill="#000000" d="
  M 892.18 1132.23
  L 892.27 1129.31
  Q 892.28 1128.65 891.63 1128.51
  Q 888.07 1127.78 884.45 1127.74
  Q 872.38 1127.60 861.96 1128.09
  A 0.55 0.55 0.0 0 1 861.39 1127.50
  L 861.87 1118.98
  A 0.83 0.81 87.5 0 1 862.56 1118.21
  Q 876.59 1116.02 892.97 1117.40
  C 899.60 1117.96 907.23 1122.23 907.04 1129.89
  Q 906.80 1140.18 905.86 1150.76
  A 0.58 0.57 -90.0 0 1 905.34 1151.29
  C 892.64 1152.48 880.35 1153.26 867.79 1152.36
  Q 865.66 1152.21 864.20 1150.68
  C 861.19 1147.53 862.13 1141.56 863.08 1137.60
  Q 863.57 1135.56 865.58 1135.00
  Q 868.71 1134.11 871.88 1133.82
  Q 881.46 1132.93 891.34 1133.04
  Q 892.16 1133.05 892.18 1132.23
  Z
  M 892.86 1144.53
  L 892.87 1137.66
  A 0.63 0.63 0.0 0 0 892.27 1137.03
  Q 883.88 1136.65 876.00 1137.37
  Q 873.34 1137.62 873.69 1140.26
  L 874.11 1143.48
  Q 874.46 1146.16 877.16 1146.19
  Q 885.09 1146.29 892.36 1145.12
  A 0.61 0.60 -5.2 0 0 892.86 1144.53
  Z"
/>
<path fill="#000000" d="
  M 694.15 1121.66
  Q 698.04 1135.05 693.21 1147.93
  A 2.36 2.36 0.0 0 1 691.17 1149.46
  Q 676.22 1150.55 661.51 1150.67
  C 658.61 1150.69 655.53 1151.11 653.10 1149.01
  Q 649.60 1145.98 649.18 1141.06
  Q 648.18 1129.23 650.46 1121.52
  C 651.37 1118.46 654.98 1118.33 657.55 1118.15
  Q 672.57 1117.14 687.23 1118.59
  C 689.28 1118.79 693.45 1119.26 694.15 1121.66
  Z
  M 682.39 1132.97
  C 682.16 1129.94 682.08 1126.71 678.29 1126.07
  Q 670.40 1124.73 663.13 1125.83
  Q 662.67 1125.90 662.35 1126.25
  C 659.91 1128.98 661.24 1138.14 661.99 1141.44
  A 1.87 1.86 -88.1 0 0 663.28 1142.82
  C 666.99 1143.92 680.86 1145.65 681.97 1140.24
  Q 682.67 1136.78 682.39 1132.97
  Z"
/>
<path fill="#000000" d="
  M 343.37 1125.00
  C 348.34 1120.67 355.40 1118.51 361.86 1120.24
  C 366.46 1121.47 366.56 1129.27 366.47 1133.11
  A 0.51 0.50 -1.3 0 1 365.99 1133.60
  L 355.03 1134.15
  A 0.52 0.51 -1.6 0 1 354.49 1133.65
  L 354.42 1131.27
  Q 354.37 1129.57 352.67 1129.66
  Q 347.91 1129.92 343.19 1131.78
  Q 342.75 1131.95 342.71 1132.42
  Q 341.82 1142.95 342.32 1154.66
  Q 342.35 1155.27 341.74 1155.31
  L 332.34 1155.96
  Q 331.40 1156.03 331.33 1155.09
  L 328.53 1119.18
  Q 328.46 1118.32 329.32 1118.43
  L 341.85 1120.07
  A 0.87 0.87 0.0 0 1 342.61 1120.98
  L 342.43 1124.54
  Q 342.36 1125.88 343.37 1125.00
  Z"
/>
<path fill="#000000" d="
  M 788.35 1124.85
  Q 795.47 1118.82 805.06 1119.85
  C 811.46 1120.53 811.39 1128.27 811.27 1133.01
  Q 811.26 1133.57 810.70 1133.60
  L 799.81 1134.14
  Q 798.96 1134.18 799.15 1133.35
  Q 799.45 1132.09 799.15 1130.90
  A 1.62 1.61 81.7 0 0 797.51 1129.67
  Q 792.82 1129.87 788.09 1131.79
  Q 787.64 1131.97 787.59 1132.45
  Q 786.59 1143.42 787.16 1154.60
  Q 787.20 1155.27 786.53 1155.32
  L 776.86 1155.98
  A 0.61 0.61 0.0 0 1 776.21 1155.42
  L 773.34 1118.90
  A 0.47 0.47 0.0 0 1 773.87 1118.40
  L 786.52 1120.05
  A 1.14 1.13 -83.9 0 1 787.50 1121.27
  L 787.27 1124.30
  Q 787.15 1125.87 788.35 1124.85
  Z"
/>
<path fill="#000000" d="
  M 400.55 1150.23
  C 393.94 1157.31 381.92 1156.04 373.59 1152.99
  C 370.72 1151.94 370.05 1149.12 369.89 1146.41
  Q 369.13 1133.75 371.02 1121.11
  Q 371.12 1120.44 371.79 1120.39
  Q 376.20 1120.04 380.74 1120.84
  Q 381.42 1120.96 381.45 1121.65
  Q 381.86 1130.26 382.50 1138.80
  Q 382.62 1140.27 383.89 1140.62
  C 387.61 1141.63 393.34 1140.60 397.01 1139.77
  A 1.78 1.78 0.0 0 0 398.39 1138.14
  Q 398.84 1130.12 398.18 1121.69
  A 0.60 0.60 0.0 0 1 398.74 1121.04
  L 409.77 1120.48
  A 0.74 0.74 0.0 0 1 410.55 1121.17
  Q 411.36 1131.55 412.23 1141.74
  Q 412.48 1144.61 412.48 1154.96
  Q 412.48 1155.47 411.98 1155.49
  L 402.46 1155.96
  A 0.57 0.57 0.0 0 1 401.87 1155.47
  L 401.21 1150.44
  Q 401.11 1149.63 400.55 1150.23
  Z"
/>
<path fill="#000000" d="
  M 979.72 1145.21
  Q 979.85 1145.83 980.10 1145.25
  Q 984.68 1134.86 988.37 1124.17
  A 0.88 0.88 0.0 0 1 989.17 1123.58
  L 1003.32 1123.24
  A 0.32 0.32 0.0 0 1 1003.61 1123.71
  Q 995.00 1140.10 984.85 1154.80
  A 1.38 1.34 15.4 0 1 983.78 1155.39
  L 974.14 1155.78
  A 0.93 0.93 0.0 0 1 973.23 1155.18
  L 961.15 1123.29
  A 0.37 0.36 -10.7 0 1 961.49 1122.80
  L 974.49 1122.42
  A 0.63 0.62 -6.0 0 1 975.12 1122.92
  L 979.72 1145.21
  Z"
/>
<path fill="#000000" d="
  M 432.53 1127.45
  C 432.21 1136.84 431.66 1145.90 429.66 1155.06
  Q 429.52 1155.68 428.88 1155.74
  L 420.48 1156.54
  A 0.54 0.54 0.0 0 1 419.89 1155.99
  Q 420.09 1141.78 419.38 1128.43
  A 0.43 0.42 87.3 0 1 419.78 1127.98
  L 432.22 1127.15
  A 0.29 0.29 0.0 0 1 432.53 1127.45
  Z"
/>
<path fill="#000000" d="
  M 565.81 1150.09
  Q 565.46 1152.36 564.95 1154.77
  Q 564.76 1155.67 563.85 1155.76
  L 556.35 1156.50
  Q 555.35 1156.60 555.33 1155.59
  L 554.72 1128.53
  Q 554.71 1128.01 555.22 1127.98
  L 567.01 1127.21
  Q 567.86 1127.15 567.83 1128.00
  Q 567.38 1139.94 565.81 1150.09
  Z"
/>
<path fill="#000000" d="
  M 945.43 1155.77
  L 944.87 1128.44
  A 0.46 0.46 0.0 0 1 945.30 1127.97
  L 957.44 1127.19
  A 0.58 0.57 -89.5 0 1 958.05 1127.82
  C 957.24 1137.11 957.00 1146.03 954.97 1155.27
  A 0.58 0.57 3.4 0 1 954.46 1155.71
  L 946.27 1156.51
  Q 945.45 1156.59 945.43 1155.77
  Z"
/>
<path fill="#000000" d="
  M 1015.46 1155.74
  L 1007.49 1156.53
  A 0.55 0.55 0.0 0 1 1006.88 1155.99
  L 1006.31 1128.47
  A 0.50 0.50 0.0 0 1 1006.78 1127.96
  L 1018.71 1127.20
  Q 1019.22 1127.16 1019.22 1127.68
  Q 1019.09 1141.43 1016.55 1154.75
  Q 1016.37 1155.65 1015.46 1155.74
  Z"
/>
</svg>
